<mxfile host="65bd71144e">
    <diagram id="QjOZPwIhXqbHO8Zhx-9q" name="complexity graph">
        <mxGraphModel dx="1165" dy="573" grid="1" gridSize="16" guides="1" tooltips="1" connect="1" arrows="1" fold="1" page="1" pageScale="1" pageWidth="850" pageHeight="1100" math="0" shadow="0">
            <root>
                <mxCell id="0"/>
                <mxCell id="1" parent="0"/>
                <mxCell id="g1XY4CuEcMbQ2_i-hbPy-2" value="" style="shape=partialRectangle;whiteSpace=wrap;html=1;bottom=0;right=0;fillColor=none;rotation=-90;" vertex="1" parent="1">
                    <mxGeometry x="377.38" y="471.88" width="224.75" height="337.5" as="geometry"/>
                </mxCell>
                <mxCell id="g1XY4CuEcMbQ2_i-hbPy-3" value="level of effort" style="text;strokeColor=none;fillColor=none;html=1;fontSize=24;fontStyle=1;verticalAlign=middle;align=center;" vertex="1" parent="1">
                    <mxGeometry x="324.25" y="769.38" width="331" height="40" as="geometry"/>
                </mxCell>
                <mxCell id="g1XY4CuEcMbQ2_i-hbPy-4" value="goal complexity" style="text;strokeColor=none;fillColor=none;html=1;fontSize=24;fontStyle=1;verticalAlign=middle;align=center;rotation=90;" vertex="1" parent="1">
                    <mxGeometry x="176" y="620.63" width="185.38" height="40" as="geometry"/>
                </mxCell>
                <mxCell id="g1XY4CuEcMbQ2_i-hbPy-6" value="" style="endArrow=none;html=1;entryX=0.004;entryY=0.329;entryDx=0;entryDy=0;entryPerimeter=0;" edge="1" parent="1" target="g1XY4CuEcMbQ2_i-hbPy-2">
                    <mxGeometry width="50" height="50" relative="1" as="geometry">
                        <mxPoint x="320" y="576" as="sourcePoint"/>
                        <mxPoint x="375" y="592" as="targetPoint"/>
                        <Array as="points">
                            <mxPoint x="352" y="576"/>
                            <mxPoint x="368" y="640"/>
                        </Array>
                    </mxGeometry>
                </mxCell>
                <mxCell id="g1XY4CuEcMbQ2_i-hbPy-7" value="" style="endArrow=none;html=1;exitX=0.002;exitY=0.548;exitDx=0;exitDy=0;exitPerimeter=0;" edge="1" parent="1" source="g1XY4CuEcMbQ2_i-hbPy-2">
                    <mxGeometry width="50" height="50" relative="1" as="geometry">
                        <mxPoint x="352" y="594" as="sourcePoint"/>
                        <mxPoint x="352" y="576" as="targetPoint"/>
                        <Array as="points">
                            <mxPoint x="490" y="608"/>
                        </Array>
                    </mxGeometry>
                </mxCell>
                <mxCell id="g1XY4CuEcMbQ2_i-hbPy-8" value="&lt;b&gt;templates&lt;/b&gt;&amp;nbsp;&lt;br&gt;(status updates)" style="text;html=1;align=center;verticalAlign=middle;whiteSpace=wrap;rounded=0;" vertex="1" parent="1">
                    <mxGeometry x="313" y="656" width="112" height="96" as="geometry"/>
                </mxCell>
                <mxCell id="Kn5o9nNLRkkO6lqak4y6-1" value="&lt;b&gt;use strong ia&lt;/b&gt;&amp;nbsp;&lt;br&gt;(fork in the road/&lt;br&gt;issues &amp;amp; escalations)" style="text;html=1;align=center;verticalAlign=middle;whiteSpace=wrap;rounded=0;" vertex="1" parent="1">
                    <mxGeometry x="377.38" y="620.63" width="128" height="63.37" as="geometry"/>
                </mxCell>
                <mxCell id="Kn5o9nNLRkkO6lqak4y6-3" value="" style="endArrow=none;html=1;entryX=-0.01;entryY=0.948;entryDx=0;entryDy=0;entryPerimeter=0;" edge="1" parent="1" target="g1XY4CuEcMbQ2_i-hbPy-2">
                    <mxGeometry width="50" height="50" relative="1" as="geometry">
                        <mxPoint x="368" y="576" as="sourcePoint"/>
                        <mxPoint x="450" y="528" as="targetPoint"/>
                        <Array as="points">
                            <mxPoint x="608" y="576"/>
                        </Array>
                    </mxGeometry>
                </mxCell>
                <mxCell id="Kn5o9nNLRkkO6lqak4y6-4" value="&lt;b&gt;creativity&lt;/b&gt;&amp;nbsp;&lt;br&gt;(training, concepts, paradigm shifts)" style="text;html=1;align=center;verticalAlign=middle;whiteSpace=wrap;rounded=0;" vertex="1" parent="1">
                    <mxGeometry x="496" y="564.6299999999999" width="112" height="96" as="geometry"/>
                </mxCell>
            </root>
        </mxGraphModel>
    </diagram>
    <diagram id="G4JEAl91BxtFps8ffDDb" name="Page-1">
        <mxGraphModel dx="2013" dy="989" grid="1" gridSize="16" guides="1" tooltips="1" connect="1" arrows="1" fold="1" page="1" pageScale="1" pageWidth="850" pageHeight="1100" math="0" shadow="0">
            <root>
                <mxCell id="0"/>
                <mxCell id="1" parent="0"/>
                <mxCell id="9" style="edgeStyle=none;html=1;" edge="1" parent="1" source="2" target="3">
                    <mxGeometry relative="1" as="geometry"/>
                </mxCell>
                <mxCell id="2" value="&lt;font style=&quot;font-size: 24px;&quot;&gt;&lt;span style=&quot;color: rgb(38, 139, 210); font-weight: bold; background-color: rgb(253, 246, 227); font-family: Menlo, Monaco, &amp;quot;Courier New&amp;quot;, monospace; white-space: pre;&quot;&gt;📍&lt;/span&gt;Making Ideas Stick&lt;/font&gt;" style="ellipse;whiteSpace=wrap;html=1;aspect=fixed;fillColor=#f5f5f5;fontColor=#333333;strokeColor=#666666;" vertex="1" parent="1">
                    <mxGeometry x="272" y="144" width="239" height="240" as="geometry"/>
                </mxCell>
                <mxCell id="8" style="edgeStyle=none;html=1;" edge="1" parent="1" source="3" target="7">
                    <mxGeometry relative="1" as="geometry"/>
                </mxCell>
                <mxCell id="11" style="edgeStyle=none;html=1;entryX=0;entryY=0.5;entryDx=0;entryDy=0;" edge="1" parent="1" source="3" target="10">
                    <mxGeometry relative="1" as="geometry"/>
                </mxCell>
                <mxCell id="3" value="&lt;font style=&quot;font-size: 20px;&quot;&gt;&lt;span style=&quot;color: rgb(38, 139, 210); font-weight: bold; background-color: rgb(253, 246, 227); font-family: Menlo, Monaco, &amp;quot;Courier New&amp;quot;, monospace; white-space: pre;&quot;&gt;✍️ &lt;/span&gt;Writing&lt;/font&gt;" style="ellipse;whiteSpace=wrap;html=1;" vertex="1" parent="1">
                    <mxGeometry x="544" y="350" width="120" height="80" as="geometry"/>
                </mxCell>
                <mxCell id="7" value="&lt;b&gt;Information Architecture&lt;/b&gt;&lt;div style=&quot;text-align: left;&quot;&gt;&lt;ul&gt;&lt;li&gt;table of contents&lt;/li&gt;&lt;li&gt;avoid jargon&lt;/li&gt;&lt;li&gt;write at a 5th grade level&lt;/li&gt;&lt;li&gt;always use headers and bullets&lt;/li&gt;&lt;/ul&gt;&lt;/div&gt;" style="rounded=0;whiteSpace=wrap;html=1;align=center;" vertex="1" parent="1">
                    <mxGeometry x="628" y="544" width="192" height="160" as="geometry"/>
                </mxCell>
                <mxCell id="10" value="&lt;div style=&quot;text-align: left;&quot;&gt;&lt;div&gt;&lt;b&gt;Smart Brevity by Axios&lt;/b&gt;&lt;/div&gt;&lt;/div&gt;" style="rounded=0;whiteSpace=wrap;html=1;align=center;" vertex="1" parent="1">
                    <mxGeometry x="752" y="430" width="68" height="64" as="geometry"/>
                </mxCell>
            </root>
        </mxGraphModel>
    </diagram>
</mxfile>